<svg xmlns="http://www.w3.org/2000/svg" viewBox="104 158 506 216">
<!-- Muhammad/Ali rotational ambigram (reads محمد and علي; 180°-rotation symmetric).
     Mohamed Aly Amin's name-mark. Adapted from Wikimedia Commons
     "Ambigram - Muhammad and Ali2.svg" — original: Juzer, vector: Gothika.
     License: CC BY-SA 3.0 (https://creativecommons.org/licenses/by-sa/3.0/).
     Adaptation: calligraphy path isolated from ornamental border, recolorable
     via currentColor. This file remains CC BY-SA 3.0. -->
<path fill="#3ddbd9" d="M600.41 206.882c-21.184-59.769-118.2-26.472-149.258 5.866l53.298 31.189c-13.607.522-29.643 4.922-47.345 16.194-6.823-36.759-28.396-78.537-64.448-94.466-7.857 8.979-2.406 9.387 4.227 15.338 15.175 13.617 21.699 33.434 19.117 53.517-5.744 43.513-66.601-10.309-66.601-10.309s2.826 14.007 5.99 18.147c33.748 43.137 82.174 11.264 68.543-36.511 9.527 13.052 16.266 27.979 20.481 43.548 6.221 22.965-7.455 22.145-18.176 40.961-14.065 24.688-6.395 55.029 12.193 75.146 23.807-23.271 24.643-64.02 20.438-94.549 17.743-12.115 39.385-20.362 61.05-15.744 12.199 2.6 19.789 14.212 32.219 5.227-22.016-20.496-58.204-34.245-84.203-49.46 25.295-19.731 94.827-43.964 118.298-10.14-21.34 10.213-35.012 30.576-17.802 51.876 24.281 30.49 37.967-28.94 31.979-45.83zm-150.045 99.786c-1.012 14.672-4.254 29.895-11.83 42.68-15.749-24.902-10.978-52.361 11.128-71.363 1.17 10.803 1.276 20.34.702 28.683zm120.707-68.906c-4.018-10.981 7.613-27.425 15.648-36.194 1.686 2.561 3.126 5.429 4.266 8.653 5.461 15.454-8.11 59.813-19.914 27.541zM318.294 347.338c-16.071-12.543-23.942-31.863-22.746-52.078 2.743-43.804 67.149 5.713 67.149 5.713s-3.776-13.779-7.218-17.693c-36.63-40.718-82.753-5.596-65.874 41.131-10.402-12.367-18.148-26.795-23.424-42.039-7.782-22.484 5.917-22.604 15.32-42.112 12.338-25.595 2.602-55.339-17.323-74.132-22.153 24.852-20.189 65.561-13.899 95.729-16.869 13.304-37.894 23.019-59.825 19.898-12.349-1.758-20.718-12.822-32.5-3.004 23.369 18.938 60.418 30.168 87.399 43.563-23.88 21.422-91.585 50.371-117.322 18.238 20.588-11.654 32.829-32.908 14.199-52.977-26.317-28.746-35.891 31.48-28.758 47.922 25.236 58.174 119.738 18.295 148.502-16.102l-55.313-27.457c13.54-1.455 29.235-6.945 46.122-19.406 9.33 36.205 33.719 76.402 70.781 89.818 7.224-9.498 1.757-9.529-5.27-15.012zm-195.647-15.82c-6.51-15.043 3.983-60.229 17.977-28.844 4.763 10.678-5.713 27.881-13.128 37.184-1.858-2.44-3.491-5.201-4.849-8.34zm133.668-105.875c.002-14.707 2.191-30.115 8.872-43.391 17.421 23.764 14.546 51.483-6.202 71.959-1.91-10.697-2.67-20.205-2.67-28.568z"/>
</svg>
